<svg xmlns="http://www.w3.org/2000/svg" xml:space="preserve" width="24" height="24" role="img" aria-label="FaceTime" class="icon24 color brand FaceTime"><linearGradient id="a" x1="-137.542" x2="-133.962" y1="785.878" y2="197.721" gradientTransform="matrix(.03333 0 0 -.03333 16.526 28.614)" gradientUnits="userSpaceOnUse"><stop offset="0" stop-color="#5df777"/><stop offset="1" stop-color="#0abc28"/></linearGradient><path style="fill:url(#a)" d="M6.59 2A4.58 4.58 0 0 0 2 6.59v10.82A4.58 4.58 0 0 0 6.59 22h10.82A4.58 4.58 0 0 0 22 17.41V6.59A4.58 4.58 0 0 0 17.41 2Zm.387 5.653h5.856c1.06 0 1.924.86 1.924 1.923v4.87c0 1.06-.86 1.924-1.924 1.924H6.974c-1.06 0-1.924-.86-1.924-1.924v-4.87c0-1.063.864-1.927 1.927-1.923m11.232.442a.77.77 0 0 1 .744.772v6.32a.77.77 0 0 1-1.266.589l-2.207-1.852a.85.85 0 0 1-.303-.654v-2.52c0-.253.113-.493.31-.656l2.206-1.821a.76.76 0 0 1 .516-.178"/></svg>