<svg xmlns="http://www.w3.org/2000/svg" width="24" height="24" role="img" aria-label="Figma" class="icon24 brand Figma"><path style="fill: currentColor" d="M8.803 2C5.087 2 3.644 6.83 6.75 8.87a3.74 3.74 0 0 0 0 6.259 3.74 3.74 0 0 0-1.69 3.13A3.757 3.757 0 0 0 8.82 22c2.082 0 3.793-1.686 3.793-3.775V14.77a3.73 3.73 0 0 0 2.52.97h.066c3.711-.006 5.153-4.828 2.053-6.869C20.36 6.832 18.916 1.999 15.199 2Zm3.81 1.225H15.2c3.29.066 3.29 4.97 0 5.035h-.066l-2.52-.002zm-3.81.002h2.586V8.26H8.803c-3.473.12-3.473-5.153 0-5.033m0 6.255h2.586v5.036H8.803c-3.357 0-3.357-5.036 0-5.036m6.33 0h.066c3.357 0 3.357 5.036 0 5.036h-.066c-3.357 0-3.357-5.036 0-5.036m-6.33 6.26h2.586v2.485a2.566 2.566 0 0 1-2.57 2.548 2.53 2.53 0 0 1-2.534-2.515 2.517 2.517 0 0 1 2.518-2.518"/></svg>