<svg xmlns="http://www.w3.org/2000/svg" width="24" height="24" role="img" aria-label="Github" class="icon24 color brand Github"><path style="fill: #000" d="M12 1.759c-5.801 0-10.5 4.699-10.5 10.5 0 4.646 3.006 8.57 7.18 9.962.524.092.721-.223.721-.499 0-.25-.013-1.076-.013-1.955-2.638.485-3.32-.644-3.53-1.234-.119-.302-.63-1.234-1.077-1.483-.367-.197-.892-.683-.013-.696.827-.013 1.418.761 1.615 1.076.945 1.588 2.454 1.142 3.058.867.091-.683.367-1.142.669-1.405-2.336-.262-4.777-1.168-4.777-5.184 0-1.142.406-2.087 1.076-2.822-.105-.263-.473-1.339.105-2.783 0 0 .88-.275 2.887 1.077a9.7 9.7 0 0 1 2.625-.355c.893 0 1.785.118 2.625.355 2.008-1.365 2.888-1.077 2.888-1.077.577 1.444.21 2.52.105 2.783.67.735 1.076 1.667 1.076 2.822 0 4.03-2.454 4.922-4.79 5.184.38.328.708.958.708 1.943 0 1.404-.013 2.533-.013 2.887 0 .276.197.604.722.499 4.147-1.391 7.153-5.329 7.153-9.962 0-5.801-4.699-10.5-10.5-10.5"/></svg>