<svg xmlns="http://www.w3.org/2000/svg" width="24" height="24" role="img" aria-label="Instagram" class="icon24 brand Instagram"><path style="fill: currentColor" d="M7.858 2.07c-1.064.05-1.79.22-2.426.47-.657.256-1.214.6-1.768 1.156a4.86 4.86 0 0 0-1.15 1.772c-.246.638-.414 1.364-.46 2.428C2.005 8.961 1.995 9.304 2 12.02c.006 2.714.017 3.055.07 4.122.05 1.064.219 1.79.47 2.426.255.657.6 1.214 1.155 1.768a4.9 4.9 0 0 0 1.775 1.15c.635.246 1.362.414 2.427.46s1.407.058 4.122.053 3.057-.017 4.124-.068 1.788-.22 2.424-.47a4.9 4.9 0 0 0 1.77-1.156 4.9 4.9 0 0 0 1.149-1.774c.245-.636.413-1.363.46-2.427.046-1.067.057-1.408.052-4.124-.006-2.714-.018-3.055-.069-4.12-.05-1.068-.219-1.791-.47-2.428a4.95 4.95 0 0 0-1.155-1.77 4.86 4.86 0 0 0-1.774-1.149c-.636-.245-1.362-.413-2.428-.46-1.064-.045-1.406-.057-4.122-.052s-3.056.017-4.123.069m.117 18.078c-.975-.042-1.504-.205-1.857-.34a3.14 3.14 0 0 1-1.152-.746 3.05 3.05 0 0 1-.75-1.149c-.137-.352-.302-.882-.347-1.857-.05-1.053-.06-1.37-.066-4.039-.006-2.67.005-2.987.05-4.04.042-.974.205-1.505.34-1.857.181-.468.398-.8.746-1.152a3.1 3.1 0 0 1 1.149-.75c.352-.137.882-.3 1.857-.347 1.053-.05 1.37-.06 4.039-.066 2.67-.006 2.986.005 4.04.05.975.043 1.506.204 1.858.34.467.181.8.396 1.151.746.352.35.568.682.75 1.15.138.35.302.88.348 1.855.05 1.054.061 1.371.067 4.04.004 2.67-.006 2.985-.051 4.04-.043.975-.204 1.504-.34 1.857-.181.467-.398.8-.747 1.152a3.1 3.1 0 0 1-1.149.75c-.352.137-.88.3-1.855.347-1.054.05-1.37.06-4.04.067-2.671.005-2.985-.006-4.04-.051m8.152-13.493a1.2 1.2 0 1 0 1.197-1.202 1.2 1.2 0 0 0-1.197 1.202M6.866 12.01a5.134 5.134 0 1 0 10.268-.019 5.134 5.134 0 0 0-10.268.02m1.8-.003a3.333 3.333 0 1 1 3.34 3.326 3.333 3.333 0 0 1-3.34-3.326"/></svg>