<svg xmlns="http://www.w3.org/2000/svg" xmlns:xlink="http://www.w3.org/1999/xlink" width="24" height="24" viewBox="0 0 24 24" role="img" aria-label="Instagram" class="icon24 color brand Instagram"><defs><radialGradient xlink:href="#a" id="f" cx="158.429" cy="578.088" r="52.352" fx="158.429" fy="578.088" gradientTransform="matrix(0 -4.03418 4.28018 0 -2332.227 942.236)" gradientUnits="userSpaceOnUse"/><radialGradient xlink:href="#b" id="g" cx="172.615" cy="600.692" r="65" fx="172.615" fy="600.692" gradientTransform="rotate(-59.87 -448.718 683.19)scale(1.34356 1.74916)" gradientUnits="userSpaceOnUse"/><radialGradient xlink:href="#c" id="h" cx="144.012" cy="51.337" r="67.081" fx="144.012" fy="51.337" gradientTransform="matrix(-2.3989 .67549 -.23008 -.81732 464.996 -26.404)" gradientUnits="userSpaceOnUse"/><radialGradient xlink:href="#d" id="e" cx="199.788" cy="628.438" r="52.352" fx="199.788" fy="628.438" gradientTransform="rotate(164.25 577.79 780.16)scale(3.2292 2.32649)" gradientUnits="userSpaceOnUse"/><linearGradient id="d"><stop offset="0" stop-color="#ff005f"/><stop offset="1" stop-color="#fc01d8"/></linearGradient><linearGradient id="c"><stop offset="0" stop-color="#780cff"/><stop offset="1" stop-color="#820bff" stop-opacity="0"/></linearGradient><linearGradient id="b"><stop offset="0" stop-color="#fc0"/><stop offset="1" stop-color="#fc0" stop-opacity="0"/></linearGradient><linearGradient id="a"><stop offset="0" stop-color="#fc0"/><stop offset=".124" stop-color="#fc0"/><stop offset=".567" stop-color="#fe4a05"/><stop offset=".694" stop-color="#ff0f3f"/><stop offset="1" stop-color="#fe0657" stop-opacity="0"/></linearGradient></defs><path fill="url(#e)" d="M204.15 18.143c-55.23 0-71.383.057-74.523.317-11.334.943-18.387 2.728-26.07 6.554-5.922 2.942-10.592 6.351-15.201 11.13-8.394 8.716-13.481 19.439-15.323 32.184-.895 6.188-1.156 7.45-1.209 39.056-.02 10.536 0 24.4 0 42.999 0 55.2.062 71.341.326 74.476.916 11.032 2.645 17.973 6.308 25.565 7 14.533 20.37 25.443 36.12 29.514 5.453 1.404 11.476 2.178 19.208 2.544 3.277.142 36.669.244 70.081.244s66.826-.04 70.02-.203c8.954-.422 14.153-1.12 19.901-2.606 15.852-4.09 28.977-14.838 36.12-29.575 3.591-7.409 5.412-14.614 6.236-25.07.18-2.28.255-38.626.255-74.924 0-36.304-.082-72.583-.26-74.863-.835-10.625-2.656-17.77-6.364-25.32-3.042-6.182-6.42-10.799-11.324-15.519-8.752-8.361-19.455-13.45-32.21-15.29-6.18-.894-7.41-1.158-39.033-1.213z" style="fill:url(#e)" transform="translate(-5.202 -.679)scale(.08428)"/><path fill="url(#f)" d="M204.15 18.143c-55.23 0-71.383.057-74.523.317-11.334.943-18.387 2.728-26.07 6.554-5.922 2.942-10.592 6.351-15.201 11.13-8.394 8.716-13.481 19.439-15.323 32.184-.895 6.188-1.156 7.45-1.209 39.056-.02 10.536 0 24.4 0 42.999 0 55.2.062 71.341.326 74.476.916 11.032 2.645 17.973 6.308 25.565 7 14.533 20.37 25.443 36.12 29.514 5.453 1.404 11.476 2.178 19.208 2.544 3.277.142 36.669.244 70.081.244s66.826-.04 70.02-.203c8.954-.422 14.153-1.12 19.901-2.606 15.852-4.09 28.977-14.838 36.12-29.575 3.591-7.409 5.412-14.614 6.236-25.07.18-2.28.255-38.626.255-74.924 0-36.304-.082-72.583-.26-74.863-.835-10.625-2.656-17.77-6.364-25.32-3.042-6.182-6.42-10.799-11.324-15.519-8.752-8.361-19.455-13.45-32.21-15.29-6.18-.894-7.41-1.158-39.033-1.213z" style="fill:url(#f)" transform="translate(-5.202 -.679)scale(.08428)"/><path fill="url(#g)" d="M204.15 18.143c-55.23 0-71.383.057-74.523.317-11.334.943-18.387 2.728-26.07 6.554-5.922 2.942-10.592 6.351-15.201 11.13-8.394 8.716-13.481 19.439-15.323 32.184-.895 6.188-1.156 7.45-1.209 39.056-.02 10.536 0 24.4 0 42.999 0 55.2.062 71.341.326 74.476.916 11.032 2.645 17.973 6.308 25.565 7 14.533 20.37 25.443 36.12 29.514 5.453 1.404 11.476 2.178 19.208 2.544 3.277.142 36.669.244 70.081.244s66.826-.04 70.02-.203c8.954-.422 14.153-1.12 19.901-2.606 15.852-4.09 28.977-14.838 36.12-29.575 3.591-7.409 5.412-14.614 6.236-25.07.18-2.28.255-38.626.255-74.924 0-36.304-.082-72.583-.26-74.863-.835-10.625-2.656-17.77-6.364-25.32-3.042-6.182-6.42-10.799-11.324-15.519-8.752-8.361-19.455-13.45-32.21-15.29-6.18-.894-7.41-1.158-39.033-1.213z" style="fill:url(#g)" transform="translate(-5.202 -.679)scale(.08428)"/><path fill="url(#h)" d="M204.15 18.143c-55.23 0-71.383.057-74.523.317-11.334.943-18.387 2.728-26.07 6.554-5.922 2.942-10.592 6.351-15.201 11.13-8.394 8.716-13.481 19.439-15.323 32.184-.895 6.188-1.156 7.45-1.209 39.056-.02 10.536 0 24.4 0 42.999 0 55.2.062 71.341.326 74.476.916 11.032 2.645 17.973 6.308 25.565 7 14.533 20.37 25.443 36.12 29.514 5.453 1.404 11.476 2.178 19.208 2.544 3.277.142 36.669.244 70.081.244s66.826-.04 70.02-.203c8.954-.422 14.153-1.12 19.901-2.606 15.852-4.09 28.977-14.838 36.12-29.575 3.591-7.409 5.412-14.614 6.236-25.07.18-2.28.255-38.626.255-74.924 0-36.304-.082-72.583-.26-74.863-.835-10.625-2.656-17.77-6.364-25.32-3.042-6.182-6.42-10.799-11.324-15.519-8.752-8.361-19.455-13.45-32.21-15.29-6.18-.894-7.41-1.158-39.033-1.213z" style="fill:url(#h)" transform="translate(-5.202 -.679)scale(.08428)"/><path fill="#fff" d="M12.005 3.714c-2.252 0-2.535.01-3.42.05-.882.04-1.484.18-2.011.385a4.1 4.1 0 0 0-1.47.955c-.46.46-.744.923-.956 1.467-.206.527-.346 1.13-.385 2.011-.04.884-.05 1.166-.05 3.417s.01 2.531.05 3.415c.04.882.18 1.484.385 2.01a4.1 4.1 0 0 0 .956 1.468c.461.461.924.745 1.469.956.527.205 1.13.345 2.012.385.885.04 1.167.05 3.418.05s2.534-.01 3.418-.05c.883-.04 1.486-.18 2.014-.385a4.06 4.06 0 0 0 1.467-.956c.462-.46.745-.923.957-1.467.204-.527.344-1.13.386-2.011.04-.884.05-1.165.05-3.415s-.01-2.533-.05-3.417c-.042-.882-.182-1.484-.386-2.01a4.1 4.1 0 0 0-.957-1.468 4.05 4.05 0 0 0-1.468-.955c-.528-.205-1.131-.345-2.014-.385-.884-.04-1.166-.05-3.418-.05Zm-.744 1.493h.744c2.213 0 2.476.008 3.35.047.808.037 1.247.172 1.54.286.386.15.662.33.952.62s.47.565.62.952c.114.292.25.73.286 1.538.04.873.048 1.136.048 3.347 0 2.21-.008 2.473-.048 3.346-.037.808-.172 1.247-.286 1.538-.15.387-.33.662-.62.952s-.566.47-.953.62c-.292.114-.73.248-1.54.285-.873.04-1.136.048-3.35.048-2.213 0-2.476-.008-3.35-.048-.808-.037-1.247-.172-1.54-.286a2.6 2.6 0 0 1-.953-.62c-.29-.29-.47-.565-.62-.951-.114-.292-.249-.73-.286-1.538-.04-.874-.047-1.136-.047-3.348 0-2.213.008-2.474.047-3.347.037-.808.172-1.246.286-1.538.15-.387.33-.663.62-.953s.567-.47.954-.62c.292-.114.73-.249 1.54-.286.764-.034 1.06-.045 2.606-.046zm5.17 1.375a.994.994 0 1 0-.002 1.99.994.994 0 0 0 .001-1.99zm-4.426 1.162a4.256 4.256 0 0 0-4.258 4.255 4.256 4.256 0 0 0 4.258 4.253 4.255 4.255 0 1 0 0-8.508zm0 1.493a2.763 2.763 0 1 1-2.764 2.762 2.763 2.763 0 0 1 2.764-2.762"/></svg>