<svg xmlns="http://www.w3.org/2000/svg" width="24" height="24" role="img" aria-label="LinkedIn" class="icon24 brand LinkedIn"><path style="fill: currentColor" d="M4.222 2A2.22 2.22 0 0 0 2 4.222v15.556C2 21.005 2.995 22 4.222 22h15.556A2.22 2.22 0 0 0 22 19.778V4.222A2.22 2.22 0 0 0 19.778 2Zm2.32 2.778a1.77 1.77 0 0 1 1.763 1.777 1.77 1.77 0 0 1-1.763 1.777 1.77 1.77 0 0 1-1.764-1.777c0-.982.79-1.777 1.764-1.777m9.175 4.52c2.043 0 3.505 1.248 3.505 3.827v6.097h-2.967v-5.055c0-1.386-.527-2.16-1.624-2.16-1.194 0-1.817.806-1.817 2.16v5.055h-2.86v-9.63h2.86v1.297s.86-1.59 2.903-1.59m-10.652.295h2.982v9.63H5.065Z"/></svg>