<svg xmlns="http://www.w3.org/2000/svg" width="24" height="24" role="img" aria-label="Messenger" class="icon24 color brand Messenger"><path style="fill:#0866ff" d="M12 1.5C6.085 1.5 1.5 5.834 1.5 11.686c0 3.061 1.254 5.706 3.297 7.533a.84.84 0 0 1 .283.598l.057 1.868a.84.84 0 0 0 1.179.742l2.083-.92a.84.84 0 0 1 .56-.04c.959.263 1.979.403 3.041.403 5.915 0 10.5-4.332 10.5-10.184S17.915 1.5 12 1.5m6.007 6.508c.434.015.786.515.5.959l-3.656 5.65a.62.62 0 0 1-.855.183l-3.385-2.191a.39.39 0 0 0-.431.007l-3.816 2.631c-.557.384-1.238-.276-.87-.844l3.655-5.65a.62.62 0 0 1 .855-.183l3.387 2.191c.131.085.3.082.43-.006l3.815-2.632a.6.6 0 0 1 .371-.115"/></svg>