<svg xmlns="http://www.w3.org/2000/svg" width="24" height="24" role="img" aria-label="Slack" class="icon24 color brand Slack"><g fill="none"><path fill="#e01e5a" d="M5.922 14.775c0 1.221-.986 2.207-2.207 2.207a2.205 2.205 0 0 1-2.207-2.207c0-1.22.987-2.207 2.207-2.207h2.207zm1.104 0c0-1.22.986-2.207 2.207-2.207s2.207.987 2.207 2.207v5.518c0 1.22-.987 2.207-2.207 2.207a2.205 2.205 0 0 1-2.207-2.207z"/><path fill="#36c5f0" d="M9.233 5.914a2.205 2.205 0 0 1-2.207-2.207c0-1.22.986-2.207 2.207-2.207s2.207.986 2.207 2.207v2.207Zm0 1.12c1.22 0 2.207.987 2.207 2.207s-.987 2.207-2.207 2.207H3.699a2.205 2.205 0 0 1-2.207-2.207c0-1.22.986-2.207 2.207-2.207Z"/><path fill="#2eb67d" d="M18.078 9.241c0-1.22.986-2.207 2.207-2.207s2.207.987 2.207 2.207-.987 2.207-2.207 2.207h-2.207Zm-1.104 0c0 1.22-.986 2.207-2.207 2.207a2.205 2.205 0 0 1-2.207-2.207V3.707c0-1.22.987-2.207 2.207-2.207s2.207.986 2.207 2.207z"/><path fill="#ecb22e" d="M14.767 18.086c1.22 0 2.207.986 2.207 2.207s-.986 2.207-2.207 2.207a2.205 2.205 0 0 1-2.207-2.207v-2.207Zm0-1.104a2.205 2.205 0 0 1-2.207-2.207c0-1.22.987-2.207 2.207-2.207h5.534c1.22 0 2.207.987 2.207 2.207 0 1.221-.986 2.207-2.207 2.207z"/></g>
</svg>