<svg xmlns="http://www.w3.org/2000/svg" width="24" height="24" aria-label="Slack" class="icon24 brand Slack"><path style="fill: currentColor" d="M9.366 2.007c-1.161 0-2.1.94-2.1 2.1 0 1.162.939 2.101 2.1 2.101h2.1v-2.1c0-1.162-.938-2.1-2.1-2.1m5.268 0c-1.162 0-2.1.938-2.1 2.1v5.267c0 1.162.938 2.1 2.1 2.1 1.161 0 2.1-.938 2.1-2.1V4.108c0-1.162-.939-2.1-2.1-2.1M4.1 7.274c-1.161 0-2.1.939-2.1 2.1s.939 2.1 2.1 2.1h5.266c1.162 0 2.1-.938 2.1-2.1 0-1.161-.938-2.1-2.1-2.1zm15.785 0c-1.162 0-2.1.939-2.1 2.1v2.1h2.1c1.161 0 2.1-.938 2.1-2.1 0-1.161-.939-2.1-2.1-2.1m-15.77 5.266c-1.161 0-2.1.939-2.1 2.1s.939 2.1 2.1 2.1 2.1-.938 2.1-2.1v-2.1zm5.251 0c-1.161 0-2.1.939-2.1 2.1v5.25c0 1.162.939 2.101 2.1 2.101s2.1-.938 2.1-2.1v-5.25c0-1.162-.938-2.101-2.1-2.101m5.268 0c-1.162 0-2.1.939-2.1 2.1s.938 2.1 2.1 2.1H19.9c1.161 0 2.1-.938 2.1-2.1 0-1.161-.939-2.1-2.1-2.1Zm-2.1 5.25v2.101c0 1.162.938 2.1 2.1 2.1 1.161 0 2.1-.938 2.1-2.1 0-1.161-.939-2.1-2.1-2.1z"/></svg>