<svg xmlns="http://www.w3.org/2000/svg" width="24" height="24" role="img" aria-label="Soundcloud" class="icon24 color brand Soundcloud"><path style="fill: currentColor" d="M1.25 12.937c-.047 0-.083.035-.09.086L1 14.245l.16 1.2c.007.051.043.087.09.087.044 0 .08-.035.087-.086l.19-1.201-.19-1.222c-.007-.05-.044-.086-.088-.086m.904-.668c-.008-.052-.045-.089-.092-.089-.046 0-.085.038-.091.09l-.216 1.975.216 1.932c.006.052.045.09.091.09s.084-.037.092-.09l.246-1.932zm3.408-1.822a.17.17 0 0 0-.166.164l-.173 3.636.173 2.349a.17.17 0 0 0 .166.164.17.17 0 0 0 .166-.165v.001l.195-2.35-.195-3.635a.17.17 0 0 0-.166-.164M3.798 11.71c-.068 0-.124.054-.13.127l-.193 2.409.194 2.33a.13.13 0 0 0 .129.126.133.133 0 0 0 .129-.126l.22-2.33-.22-2.41a.133.133 0 0 0-.129-.126m3.556 5.05c.11 0 .2-.09.204-.203l.17-2.31-.17-4.839a.207.207 0 0 0-.203-.202.207.207 0 0 0-.205.202L7 14.248l.15 2.31a.206.206 0 0 0 .204.202m3.67.01a.28.28 0 0 0 .28-.277v.002-.002l.117-2.244-.118-5.59a.283.283 0 0 0-.28-.277.28.28 0 0 0-.278.278l-.106 5.587.106 2.247a.28.28 0 0 0 .279.277m-1.849-.008a.243.243 0 0 0 .242-.24v.001l.143-2.274-.144-4.875a.243.243 0 0 0-.241-.24.24.24 0 0 0-.242.24l-.127 4.875.127 2.274c.003.133.11.24.242.24zm-4.498-.021a.15.15 0 0 0 .147-.146l.208-2.35-.208-2.234a.15.15 0 0 0-.147-.145.15.15 0 0 0-.148.146l-.183 2.234.183 2.35a.15.15 0 0 0 .148.145m-1.75-.129c.057 0 .103-.045.11-.108l.233-2.259-.233-2.344c-.007-.063-.053-.108-.11-.108-.058 0-.105.046-.11.108l-.206 2.344.205 2.259c.006.063.052.108.11.108m7.169-7.32a.26.26 0 0 0-.26.26l-.117 4.697.116 2.26a.26.26 0 0 0 .521-.002v.002l.13-2.26-.13-4.697a.26.26 0 0 0-.26-.26m-3.641 7.473c.099 0 .18-.081.185-.184l.182-2.334-.182-4.466a.19.19 0 0 0-.185-.184.19.19 0 0 0-.186.184l-.16 4.466.16 2.335a.187.187 0 0 0 .186.183m2.029-.22v-.002l.156-2.295-.156-5.002a.225.225 0 0 0-.223-.222.224.224 0 0 0-.223.222L7.9 14.248l.139 2.296c.002.123.1.22.222.22a.224.224 0 0 0 .223-.22zm11.81-5.18c-.37 0-.724.074-1.046.21a4.775 4.775 0 0 0-6.486-4.029c-.205.079-.26.16-.261.318v8.589c.002.165.13.303.292.32l7.501.004a2.706 2.706 0 0 0 0-5.412m-8.346-3.508a.3.3 0 0 0-.298.297l-.123 6.096.123 2.212a.3.3 0 0 0 .298.295.3.3 0 0 0 .298-.297v.003l.132-2.213-.132-6.096a.3.3 0 0 0-.298-.297" /></svg>