<svg xmlns="http://www.w3.org/2000/svg" width="24" height="24" role="img" aria-label="Spotify" class="icon24 brand Spotify"><path style="fill: currentColor" d="M12.417 1.508c-5.795-.23-10.68 4.28-10.909 10.075S5.79 22.261 11.584 22.492s10.677-4.28 10.908-10.075c.229-5.795-4.282-10.68-10.075-10.909m4.432 15.383a.626.626 0 0 1-.856.235 12.6 12.6 0 0 0-4.495-1.529 12.6 12.6 0 0 0-4.743.23.627.627 0 1 1-.295-1.218c1.706-.415 3.46-.5 5.213-.254 1.752.247 3.414.812 4.941 1.68.3.172.406.554.235.856zm1.38-2.757a.816.816 0 0 1-1.105.33 15.5 15.5 0 0 0-5.226-1.714 15.5 15.5 0 0 0-5.495.207.814.814 0 1 1-.35-1.592 17.1 17.1 0 0 1 6.073-.23c2.035.285 3.979.923 5.773 1.894a.815.815 0 0 1 .33 1.104zm1.53-3.107a1.003 1.003 0 0 1-1.354.427 18.7 18.7 0 0 0-6.053-1.932 18.7 18.7 0 0 0-6.351.19 1.003 1.003 0 0 1-.4-1.966c2.314-.47 4.678-.54 7.03-.21s4.606 1.05 6.7 2.14c.492.255.683.86.427 1.352z"/></svg>