<svg xmlns="http://www.w3.org/2000/svg" width="24" height="24" role="img" aria-label="Microsoft Teams" class="icon24 brand Teams"><path style="fill: currentColor" d="M12.993 2.23a3.176 3.176 0 0 0-3.19 3.089h1.547c1.22 0 2.207.987 2.207 2.206v1.006a3.176 3.176 0 0 0-.564-6.3m6.672 1.963a2.2 2.2 0 0 0-2.047 2.194 2.198 2.198 0 1 0 4.395 0 2.2 2.2 0 0 0-2.348-2.194M2.395 6.63c-.494 0-.895.4-.895.895v8.956a.89.89 0 0 0 .896.894h8.954a.89.89 0 0 0 .894-.894V7.525a.89.89 0 0 0-.894-.894H2.396Zm2.122 2.463H9.23v.945H7.44v4.876H6.297v-4.876h-1.78Zm9.04.466v6.922c0 1.22-.987 2.206-2.207 2.206H7.921a5.51 5.51 0 0 0 4.812 3.083 5.51 5.51 0 0 0 5.372-5.635v-5.636a.92.92 0 0 0-.894-.94Zm5.663.002a2.2 2.2 0 0 1 .197.951v5.61a6.8 6.8 0 0 1-.5 2.716l.157.002h.017a3.41 3.41 0 0 0 3.409-3.41v-4.94a.93.93 0 0 0-.927-.93z"/></svg>