<svg xmlns="http://www.w3.org/2000/svg" width="24" height="24" role="img" aria-label="WhatsApp" class="icon24 brand WhatsApp"><path style="fill: currentColor" d="M12 1.5C6.2 1.5 1.5 6.2 1.5 12c0 1.908.509 3.697 1.399 5.24L1.5 22.5l5.454-1.29A10.46 10.46 0 0 0 12 22.5c5.8 0 10.5-4.7 10.5-10.5S17.8 1.5 12 1.5m0 1.881A8.62 8.62 0 0 1 20.619 12 8.62 8.62 0 0 1 12 20.619a8.58 8.58 0 0 1-4.748-1.425l-3.224.82.904-3.08A8.58 8.58 0 0 1 3.382 12 8.62 8.62 0 0 1 12 3.381M9.138 6.817l-.024.001a2.58 2.58 0 0 0-1.604.762c-1.695 1.696.223 4.74.297 4.864A9.2 9.2 0 0 0 9.42 14.58a9.1 9.1 0 0 0 2.135 1.614c.123.074 3.169 1.992 4.864.297.601-.6.734-1.27.762-1.605a.31.31 0 0 0-.18-.301l-2.541-1.198a.31.31 0 0 0-.357.062l-.893.893a.62.62 0 0 1-.732.116 8 8 0 0 1-1.666-1.272 8 8 0 0 1-1.271-1.664.62.62 0 0 1 .117-.732l.893-.893a.32.32 0 0 0 .062-.357L9.416 7a.31.31 0 0 0-.278-.182"/></svg>