<svg xmlns="http://www.w3.org/2000/svg" width="24" height="24" role="img" aria-label="Website" class="icon24 website"><path style="fill: currentColor" d="M3 3c-1.11 0-2 .89-2 2v12a2 2 0 0 0 2 2h5v2h5.371l-4.016-4H3V5h18v8.19l1.777.935q.12.05.223.152V5a2 2 0 0 0-2-2zm13.293 6.479c-.576 0-1.043.466-1.043 1.042V16.7c-2.5-.528-2.459-.52-2.549-.52-.215 0-.41.09-.549.23l-.548.556 3.431 3.43c.188.187.452.306.736.306h4.715c.521 0 .926-.383 1.002-.89l.52-3.66q.012-.076.013-.14c0-.43-.262-.804-.63-.956l-3.155-1.57a1 1 0 0 0-.375-.077h-.527v-2.887a1.04 1.04 0 0 0-1.041-1.042"/></svg>